<svg xmlns="http://www.w3.org/2000/svg"  viewBox="0 0 50 50" width="50px" height="50px"><path d="M 42.900391 2.9003906 C 41.790391 2.9003906 40.760234 3.3198437 39.990234 4.0898438 L 39.169922 4.9101562 C 38.789922 4.7101562 38.310234 4.7698438 37.990234 5.0898438 L 25.539062 17.539062 L 26.960938 18.960938 L 31.050781 23.050781 L 32.460938 24.460938 L 44.910156 12.009766 C 45.260156 11.659766 45.299766 11.110937 45.009766 10.710938 L 45.810547 9.9101562 C 47.410547 8.3001563 47.410547 5.6998438 45.810547 4.0898438 C 45.040547 3.3198437 44.010391 2.9003906 42.900391 2.9003906 z M 6.6972656 3.6269531 C 5.3661133 3.7021484 4.0992187 4.3066406 3.2304688 5.3691406 C 2.0204688 6.8291406 1.8096875 8.9099219 2.6796875 10.669922 C 2.7196875 10.759922 2.7891406 10.849687 2.8691406 10.929688 L 17.509766 25.570312 L 18.910156 27.009766 L 23.019531 31.080078 L 24.429688 32.490234 L 25.650391 33.699219 L 25.679688 33.730469 L 31.779297 38.539062 C 31.849297 38.589062 31.92 38.639922 32 38.669922 C 32.3 38.799922 32.600156 38.889219 32.910156 38.949219 L 32.910156 39.039062 C 32.960156 40.379063 33.320234 42.899297 35.240234 44.779297 C 36.740234 46.249297 38.820547 46.980469 41.060547 46.980469 C 43.220547 46.980469 45.539375 46.290391 47.609375 44.900391 C 47.999375 44.640391 48.169063 44.149219 48.039062 43.699219 C 47.909062 43.239219 47.499297 42.930156 47.029297 42.910156 C 46.049297 42.890156 45.259453 42.639922 44.689453 42.169922 C 43.959453 41.549922 43.740234 40.679922 43.490234 39.669922 C 43.200234 38.519922 42.880703 37.209688 41.720703 36.179688 C 40.710703 35.289687 39.300781 34.860391 37.550781 34.900391 C 37.530781 34.420391 37.420938 33.940703 37.210938 33.470703 C 37.170938 33.390703 37.130078 33.32 37.080078 33.25 L 32.240234 27.109375 C 32.210234 27.079375 32.190156 27.049531 32.160156 27.019531 L 31.029297 25.890625 L 29.630859 24.460938 L 25.539062 20.369141 L 24.099609 18.980469 L 9.3808594 4.2792969 C 9.2908594 4.1892969 9.1998437 4.1200781 9.0898438 4.0800781 C 8.3173438 3.7275781 7.495957 3.5818359 6.6972656 3.6269531 z M 38.699219 7.2109375 L 42.789062 11.300781 L 40.060547 14.039062 L 35.970703 9.9492188 L 38.699219 7.2109375 z M 16.070312 27.009766 L 6.5898438 36.490234 C 6.4898438 36.590234 6.409375 36.719609 6.359375 36.849609 L 3.0605469 45.650391 C 2.9305469 46.020391 3.0190625 46.430937 3.2890625 46.710938 C 3.4790625 46.900937 3.74 47 4 47 C 4.12 47 4.2396094 46.979453 4.3496094 46.939453 L 13.150391 43.640625 C 13.280391 43.590625 13.409766 43.510156 13.509766 43.410156 L 23.019531 33.900391 L 21.599609 32.5 L 17.5 28.419922 L 16.070312 27.009766 z M 32.019531 30.070312 L 35.419922 34.380859 C 35.699922 35.130859 35.549766 35.940469 35.009766 36.480469 C 34.479766 37.010469 33.660156 37.170859 32.910156 36.880859 L 28.570312 33.460938 C 29.350313 33.160938 30.239766 32.64 31.009766 31.75 C 31.429766 31.25 31.779531 30.680312 32.019531 30.070312 z M 7.6601562 39.080078 L 8.2890625 39.710938 C 8.4790625 39.890937 8.73 40 9 40 L 10 40 L 10 41 C 10 41.27 10.109063 41.520938 10.289062 41.710938 L 10.919922 42.339844 L 7.0800781 43.779297 L 6.2207031 42.919922 L 7.6601562 39.080078 z"/></svg>