<svg xmlns="http://www.w3.org/2000/svg" viewBox="0 0 48 48" width="48px" height="48px" fill="#00FFF0">
  <path d="M 24 4 C 13 4 4 13 4 24 C 4 35 13 44 24 44 C 35 44 44 35 44 24 C 44 13 35 4 24 4 z M 24 7 C 33.4 7 41 14.6 41 24 C 41 33.4 33.4 41 24 41 C 14.6 41 7 33.4 7 24 C 7 14.6 14.6 7 24 7 z M 24 13 C 23.4 13 23 13.4 23 14 L 23 24 C 23 24.3 23.1 24.599609 23.3 24.849609 L 29.3 30.849609 C 29.5 31.049609 29.8 31.150391 30 31.150391 C 30.2 31.150391 30.5 31.049609 30.7 30.849609 C 31.1 30.449609 31.1 29.850391 30.7 29.400391 L 25 23.699219 L 25 14 C 25 13.4 24.6 13 24 13 z"></path>
</svg> 