<svg xmlns="http://www.w3.org/2000/svg" viewBox="0 0 48 48" width="48px" height="48px" fill="#00FFF0">
  <path d="M 18.5 5 C 17.554125 5 16.699438 5.6506875 16.4375 6.5625 L 9 35.5 C 8.8 36.1 9 36.7 9.3 37.2 C 9.7 37.7 10.200781 38 10.800781 38 C 11.100781 38 11.399609 37.899219 11.599609 37.699219 C 12.199609 37.299219 12.500781 36.599609 12.300781 35.599609 L 19.699219 6.6992188 C 19.799219 6.2992187 19.6 5.8996094 19.5 5.5996094 C 19.2 5.1996094 18.9 5 18.5 5 z M 9.5 9 C 8.7 9 7.9992187 9.3 7.6992188 9.9 C 7.2992187 10.5 7.1992188 11.2 7.6992188 11.9 L 15.900391 23.699219 L 7.9003906 35.099609 C 7.5003906 35.799609 7.6 36.499609 8 36.899609 C 8.5 37.399609 9.1 37.6 9.8 37.5 C 10.3 37.4 10.700781 37.200781 11.300781 36.300781 L 20.199219 24 L 11.199219 11.199219 C 10.999219 10.699219 10.3 9.9 9.5 9 z M 38.5 9 C 37.7 9.9 37.000781 10.699219 36.800781 11.199219 L 27.800781 24 L 36.699219 36.300781 C 37.299219 37.200781 37.7 37.4 38.199219 37.5 C 38.899219 37.6 39.499219 37.399609 39.699219 36.899609 C 40.099219 36.499609 40.199609 35.799609 39.599609 35.099609 L 31.599609 23.699219 L 39.900391 11.9 C 40.400391 11.2 40.300391 10.5 39.900391 9.9 C 39.500391 9.3 38.9 9 38.5 9 z"></path>
</svg> 