<svg xmlns="http://www.w3.org/2000/svg" viewBox="0 0 48 48" width="48px" height="48px" fill="#00FFF0">
  <path d="M 24 4 C 23.2 4 22.400781 4.2796875 21.800781 4.8796875 L 4.8007812 21.900391 C 3.6007812 23.100391 3.6007812 25.099609 4.8007812 26.199609 L 21.800781 43.199219 C 22.400781 43.799219 23.2 44 24 44 C 24.8 44 25.599219 43.7 26.199219 43.099609 L 43.199219 26.099609 C 43.799219 25.499609 44 24.599219 44 23.699219 C 44 22.899219 43.799219 22.099609 43.199219 21.599609 L 26.199219 4.8007812 C 25.599219 4.3007812 24.8 4 24 4 z M 24 7.5 C 24.8 7.5 25.400781 8.0992187 25.300781 8.8992188 C 25.300781 9.6992187 24.7 10.300781 23.9 10.300781 C 23.1 10.300781 22.5 9.6992187 22.5 8.8992188 C 22.5 8.0992187 23.2 7.5 24 7.5 z M 14.800781 10.800781 C 15.600781 10.800781 16.199219 11.400781 16.199219 12.300781 C 16.199219 13.000781 15.600781 13.599609 14.800781 13.599609 C 14.100781 13.599609 13.5 13.000781 13.5 12.300781 C 13.5 11.500781 14.100781 10.800781 14.800781 10.800781 z M 33.199219 10.800781 C 33.999219 10.800781 34.599609 11.400781 34.599609 12.300781 C 34.599609 13.000781 33.999219 13.599609 33.199219 13.599609 C 32.499219 13.599609 31.900391 13.000781 31.800391 12.300781 C 31.800391 11.500781 32.499219 10.800781 33.199219 10.800781 z M 9 18.900391 C 9.8 18.900391 10.399609 19.499219 10.599609 20.199219 C 10.599609 20.999219 9.9 21.599609 9.1 21.599609 C 8.3 21.599609 7.6992188 20.999219 7.6992188 20.199219 C 7.6992188 19.399219 8.3 18.900391 9 18.900391 z M 39 18.900391 C 39.8 18.900391 40.5 19.499219 40.5 20.199219 C 40.5 20.999219 39.9 21.599609 39 21.599609 C 38.2 21.599609 37.599609 20.999219 37.599609 20.199219 C 37.599609 19.399219 38.2 18.900391 39 18.900391 z M 24 21.599609 C 25.6 21.599609 27 22.999609 27 24.599609 C 27 26.199609 25.7 27.599609 24 27.599609 C 22.3 27.599609 21 26.299609 21 24.599609 C 21 22.999609 22.4 21.599609 24 21.599609 z M 9 27.599609 C 9.8 27.599609 10.399609 28.199219 10.599609 28.900391 C 10.599609 29.700391 9.9 30.300781 9.1 30.300781 C 8.3 30.300781 7.6992188 29.700391 7.6992188 28.900391 C 7.6992188 28.199219 8.3 27.599609 9 27.599609 z M 39 27.599609 C 39.8 27.599609 40.5 28.199219 40.5 28.900391 C 40.5 29.700391 39.9 30.300781 39 30.300781 C 38.2 30.300781 37.599609 29.700391 37.599609 28.900391 C 37.599609 28.199219 38.2 27.599609 39 27.599609 z M 14.800781 35.5 C 15.600781 35.5 16.199219 36.099609 16.199219 36.900391 C 16.199219 37.700391 15.600781 38.300781 14.800781 38.300781 C 14.100781 38.300781 13.5 37.700391 13.5 36.900391 C 13.5 36.099609 14.100781 35.5 14.800781 35.5 z M 33.199219 35.5 C 33.999219 35.5 34.599609 36.099609 34.599609 36.900391 C 34.599609 37.700391 33.999219 38.300781 33.199219 38.300781 C 32.499219 38.300781 31.800391 37.700391 31.800391 36.900391 C 31.900391 36.099609 32.499219 35.5 33.199219 35.5 z M 24 38.800781 C 24.8 38.800781 25.400781 39.400781 25.300781 40.300781 C 25.300781 41.000781 24.7 41.599609 23.9 41.599609 C 23.1 41.599609 22.5 41.000781 22.5 40.300781 C 22.5 39.400781 23.2 38.800781 24 38.800781 z"></path>
</svg> 