<svg width="33" height="22" viewBox="0 0 33 22" fill="none" xmlns="http://www.w3.org/2000/svg">
<circle cx="1.73684" cy="1.73684" r="1.73684" fill="#6875F1"/>
<circle cx="1.73684" cy="8.10525" r="1.73684" fill="#6875F1"/>
<circle cx="1.73684" cy="13.8947" r="1.73684" fill="#6875F1"/>
<circle cx="1.73684" cy="20.2631" r="1.73684" fill="#6875F1"/>
<circle cx="9.26316" cy="20.2631" r="1.73684" fill="#6875F1"/>
<ellipse cx="16.5" cy="20.2631" rx="2.02632" ry="1.73684" fill="#6875F1"/>
<circle cx="23.7368" cy="20.2631" r="1.73684" fill="#6875F1"/>
<circle cx="31.2632" cy="20.2631" r="1.73684" fill="#6875F1"/>
<circle cx="31.2632" cy="13.8947" r="1.73684" fill="#6875F1"/>
<circle cx="23.7368" cy="13.8947" r="1.73684" fill="#6875F1"/>
<circle cx="23.7368" cy="8.10525" r="1.73684" fill="#6875F1"/>
<circle cx="23.7368" cy="1.73684" r="1.73684" fill="#6875F1"/>
<ellipse cx="16.5" cy="1.73684" rx="2.02632" ry="1.73684" fill="#6875F1"/>
<ellipse cx="16.5" cy="13.8947" rx="2.02632" ry="1.73684" fill="#6875F1"/>
<ellipse cx="16.5" cy="8.10525" rx="2.02632" ry="1.73684" fill="#6875F1"/>
<circle cx="9.26316" cy="8.10525" r="1.73684" fill="#6875F1"/>
<circle cx="9.26316" cy="1.73684" r="1.73684" fill="#6875F1"/>
<circle cx="9.26316" cy="13.8947" r="1.73684" fill="#6875F1"/>
<circle cx="31.2632" cy="8.10525" r="1.73684" fill="#6875F1"/>
<circle cx="31.2632" cy="1.73684" r="1.73684" fill="#6875F1"/>
</svg>
